<svg width="31" height="31" viewBox="0 0 31 31" fill="none" xmlns="http://www.w3.org/2000/svg">
<path d="M28.3462 15.4781L30.5 18.0417L20.4538 30.0235L15.1154 23.6599L17.2692 21.0963L20.4538 24.8781L28.3462 15.4781ZM11.2692 23.6599L15.8846 29.1144H0.5V25.4781C0.5 21.4599 6.00769 18.2053 12.8077 18.2053L15.7154 18.4053L11.2692 23.6599ZM12.8077 0.0235291C14.4398 0.0235291 16.005 0.78976 17.1591 2.15366C18.3132 3.51756 18.9615 5.36741 18.9615 7.29626C18.9615 9.2251 18.3132 11.075 17.1591 12.4389C16.005 13.8028 14.4398 14.569 12.8077 14.569C11.1756 14.569 9.61034 13.8028 8.45627 12.4389C7.3022 11.075 6.65385 9.2251 6.65385 7.29626C6.65385 5.36741 7.3022 3.51756 8.45627 2.15366C9.61034 0.78976 11.1756 0.0235291 12.8077 0.0235291Z" fill="black"/>
</svg>
