<svg width="30" height="31" viewBox="0 0 30 31" fill="none" xmlns="http://www.w3.org/2000/svg">
<path d="M14.2219 17.7932C14.5387 17.476 15.0843 17.476 15.4012 17.7932L19.9188 22.3162C20.752 23.1503 21.8608 23.6085 23.0343 23.6085H23.9202L18.2232 29.3121C16.4455 31.045 13.5589 31.045 11.7811 29.3121L6.0607 23.5909H6.60634C7.77977 23.5909 8.88865 23.1327 9.72178 22.2986L14.2219 17.7932ZM15.4012 13.4699C15.0257 13.793 14.5446 13.7989 14.2219 13.4699L9.72178 8.96458C8.88865 8.07761 7.77977 7.6723 6.60634 7.6723H6.0607L11.7753 1.94867C13.5589 0.166139 16.4455 0.166139 18.2232 1.94867L23.9261 7.65468H23.0343C21.8608 7.65468 20.752 8.11285 19.9188 8.94696L15.4012 13.4699ZM6.60634 8.99395C7.41601 8.99395 8.16113 9.3229 8.78304 9.89855L13.2831 14.4039C13.7056 14.774 14.2571 15.0383 14.8144 15.0383C15.3659 15.0383 15.9175 14.774 16.3399 14.4039L20.8576 9.88093C21.4325 9.31115 22.2246 8.9822 23.0343 8.9822H25.2462L28.6667 12.4067C30.4444 14.1866 30.4444 17.0766 28.6667 18.8564L25.2462 22.281H23.0343C22.2246 22.281 21.4325 21.952 20.8576 21.3764L16.3399 16.8534C15.5244 16.0369 14.0986 16.0369 13.2831 16.8592L8.78304 21.3587C8.16113 21.9344 7.41601 22.2633 6.60634 22.2633H4.73943L1.33533 18.8564C-0.445109 17.0766 -0.445109 14.1866 1.33533 12.4067L4.73943 8.99395H6.60634Z" fill="black"/>
</svg>
